<?xml version="1.0" encoding="UTF-8"?>
<svg width="80px" height="16px" viewBox="0 0 80 16" version="1.1" xmlns="http://www.w3.org/2000/svg" xmlns:xlink="http://www.w3.org/1999/xlink">
    <!-- Generator: Sketch 42 (36781) - http://www.bohemiancoding.com/sketch -->
    <title>buffer-logo</title>
    <desc>Created with Sketch.</desc>
    <defs></defs>
    <g id="buffer-web" stroke="none" stroke-width="1" fill="none" fill-rule="evenodd">
        <g id="buffer-logo" fill="#323B43">
            <g id="Buffer-+-Logomark">
                <g id="Logomark" transform="translate(0.000000, 1.190344)">
                    <path d="M13.6751257,10.8759711 L12.1080077,10.1271144 C11.9736387,10.0628916 11.7537083,10.0628916 11.6192855,10.1271144 L7.13231903,12.2712406 C6.99795003,12.3354634 6.77796588,12.3354634 6.64359688,12.2712406 L2.1566304,10.1271144 C2.02220759,10.0628916 1.80227725,10.0628916 1.66790826,10.1271144 L0.100790197,10.8759711 C-0.033578795,10.9401939 -0.033578795,11.0452604 0.100790197,11.1094832 L6.64359688,14.2359782 C6.77796588,14.300201 6.99795003,14.300201 7.13231903,14.2359782 L13.6751257,11.1094832 C13.8094947,11.0452604 13.8094947,10.9401939 13.6751257,10.8759711" id="Fill-1"></path>
                    <path d="M13.6751257,7.02528176 L12.1080077,6.27648081 C11.9736387,6.21225801 11.7537083,6.21225801 11.6192855,6.27648081 L7.13231903,8.42055125 C6.99795003,8.48477404 6.77796588,8.48477404 6.64359688,8.42055125 L2.1566304,6.27648081 C2.02220759,6.21225801 1.80227725,6.21225801 1.66790826,6.27648081 L0.100790197,7.02528176 C-0.033578795,7.08950455 -0.033578795,7.19462683 0.100790197,7.25884962 L6.64359688,10.3852889 C6.77796588,10.4495117 6.99795003,10.4495117 7.13231903,10.3852889 L13.6751257,7.25884962 C13.8094947,7.19462683 13.8094947,7.08950455 13.6751257,7.02528176" id="Fill-2"></path>
                    <path d="M0.100790197,3.40816027 L6.64359688,6.53465532 C6.77796588,6.59887812 6.99795003,6.59887812 7.13231903,6.53465532 L13.6751257,3.40816027 C13.8094947,3.34393748 13.8094947,3.23887099 13.6751257,3.1746482 L7.13231903,0.048153146 C6.99795003,-0.0160696478 6.77796588,-0.0160696478 6.64359688,0.048153146 L0.100790197,3.1746482 C-0.033578795,3.23887099 -0.033578795,3.34393748 0.100790197,3.40816027" id="Fill-3"></path>
                </g>
            </g>
        </g>
    </g>
</svg>
